<svg width="64" height="84" viewBox="0 0 64 84" fill="none" xmlns="http://www.w3.org/2000/svg">
<path d="M29.9182 2.00637C31.0802 0.886505 32.9198 0.886505 34.0818 2.00637L38.8581 6.60959C39.5226 7.24996 40.4448 7.5489 41.3586 7.42014L47.9387 6.49293C49.5397 6.26733 51.0314 7.35104 51.3118 8.94335L52.4562 15.4429C52.6169 16.3552 53.1899 17.1421 54.0089 17.575L59.8601 20.6678C61.2939 21.4257 61.8658 23.1857 61.1515 24.6416L58.2484 30.558C57.8394 31.3915 57.8394 32.3675 58.2484 33.201L61.1515 39.1174C61.8658 40.5733 61.2939 42.3334 59.8601 43.0912L54.0089 46.1841C53.1899 46.6169 52.6169 47.4038 52.4562 48.3161L51.3118 54.8157C51.0314 56.408 49.5397 57.4917 47.9387 57.2661L41.3586 56.3389C40.4448 56.2101 39.5226 56.5091 38.8581 57.1494L34.0818 61.7527C32.9198 62.8725 31.0802 62.8725 29.9182 61.7527L25.1419 57.1494C24.4774 56.5091 23.5552 56.2101 22.6414 56.3389L16.0613 57.2661C14.4603 57.4917 12.9686 56.408 12.6882 54.8157L11.5438 48.3161C11.3831 47.4038 10.8101 46.6169 9.99115 46.1841L4.13985 43.0912C2.7061 42.3334 2.13416 40.5733 2.84853 39.1174L5.75156 33.201C6.16056 32.3675 6.16056 31.3915 5.75156 30.558L2.84853 24.6416C2.13416 23.1857 2.7061 21.4257 4.13985 20.6678L9.99115 17.575C10.8101 17.1421 11.3831 16.3552 11.5438 15.4429L12.6882 8.94335C12.9686 7.35103 14.4603 6.26733 16.0613 6.49293L22.6414 7.42014C23.5552 7.5489 24.4774 7.24996 25.1419 6.60959L29.9182 2.00637Z" fill="#C4C4C4"/>
<path d="M2.03223 79.4458L12.6989 57.6868L25.9052 58.1928L15.7465 84L11.683 75.9036L2.03223 79.4458Z" fill="#C4C4C4"/>
<path d="M61.9678 79.4458L50.6203 57.6868L36.5709 58.1928L47.3781 84L51.701 75.9036L61.9678 79.4458Z" fill="#C4C4C4"/>
<path d="M46.9962 32.3855C46.9962 40.9117 40.0575 47.8283 31.4923 47.8283C22.927 47.8283 15.9883 40.9117 15.9883 32.3855C15.9883 23.8594 22.927 16.9427 31.4923 16.9427C40.0575 16.9427 46.9962 23.8594 46.9962 32.3855Z" fill="white" stroke="#C80000" stroke-width="1.5"/>
<path d="M37.587 35.5373C37.587 36.8198 37.1215 37.8522 36.1906 38.6345C35.2598 39.4089 33.9565 39.8726 32.2809 40.0259V42.5061H30.6175V40.0743C28.6424 40.034 26.9102 39.6871 25.4208 39.0338V35.8398C26.125 36.1866 26.9709 36.4931 27.9584 36.7593C28.9541 37.0254 29.8404 37.1827 30.6175 37.2311V33.4805L29.804 33.166C28.2013 32.5369 27.064 31.8553 26.3921 31.1213C25.7284 30.3793 25.3965 29.4638 25.3965 28.3749C25.3965 27.2054 25.8538 26.2456 26.7685 25.4955C27.6913 24.7373 28.9743 24.2775 30.6175 24.1162V22.2651H32.2809V24.0678C34.1346 24.1485 35.8102 24.5195 37.3077 25.1809L36.1664 28.012C34.9036 27.4958 33.6085 27.1812 32.2809 27.0683V30.6374C33.8594 31.2423 34.9805 31.7666 35.6443 32.2102C36.3161 32.6538 36.8058 33.1418 37.1134 33.6741C37.4291 34.2065 37.587 34.8275 37.587 35.5373ZM33.9322 35.7188C33.9322 35.38 33.7946 35.0937 33.5194 34.8598C33.2442 34.6259 32.8314 34.3839 32.2809 34.1339V37.1464C33.3818 36.9609 33.9322 36.485 33.9322 35.7188ZM29.0512 28.3749C29.0512 28.7298 29.1726 29.0242 29.4155 29.2581C29.6664 29.484 30.0671 29.7179 30.6175 29.9598V27.1167C29.5733 27.2699 29.0512 27.6893 29.0512 28.3749Z" fill="#707070"/>
</svg>
