<svg width="12" height="13" viewBox="0 0 12 13" fill="none" xmlns="http://www.w3.org/2000/svg">
<path d="M7.99984 11.2533C8.02651 11.4533 7.95984 11.6667 7.80651 11.8067C7.74483 11.8685 7.67158 11.9175 7.59093 11.951C7.51028 11.9844 7.42382 12.0016 7.33651 12.0016C7.2492 12.0016 7.16274 11.9844 7.08209 11.951C7.00144 11.9175 6.92819 11.8685 6.86651 11.8067L4.19318 9.13333C4.12047 9.06225 4.06518 8.97532 4.03164 8.87933C3.9981 8.78334 3.98722 8.68089 3.99984 8.58V5.16667L0.80651 1.08C0.698249 0.94102 0.649399 0.764839 0.670635 0.589953C0.691871 0.415068 0.781467 0.255698 0.919843 0.146667C1.04651 0.0533334 1.18651 0 1.33318 0H10.6665C10.8132 0 10.9532 0.0533334 11.0798 0.146667C11.2182 0.255698 11.3078 0.415068 11.3291 0.589953C11.3503 0.764839 11.3014 0.94102 11.1932 1.08L7.99984 5.16667V11.2533ZM2.69318 1.33333L5.33318 4.70667V8.38667L6.66651 9.72V4.7L9.30651 1.33333H2.69318Z" fill="#C80000"/>
</svg>
