<svg width="78" height="74" viewBox="0 0 78 74" fill="none" xmlns="http://www.w3.org/2000/svg">
<rect width="34" height="74" rx="6" fill="#C4C4C4"/>
<rect y="64.8767" width="34" height="9.12329" fill="#C4C4C4"/>
<rect x="35" y="64.8767" width="41" height="9.12329" fill="#C4C4C4"/>
<path fill-rule="evenodd" clip-rule="evenodd" d="M34 1.13233e-06L10 0C7.23858 0 5 2.23858 5 5V29.4658C5 32.2272 7.23857 34.4658 10 34.4658L34 34.4658L34 1.13233e-06ZM35 34.4658H54.7045L60.5 43.0822L65.9091 34.4658H73C75.7614 34.4658 78 32.2272 78 29.4658V5C78 2.23858 75.7614 2.97237e-06 73 2.97237e-06L35 1.17951e-06L35 34.4658Z" fill="#C4C4C4"/>
<path d="M18.5 12.1644C18.5 14.6939 16.4789 16.7329 14 16.7329C11.5211 16.7329 9.5 14.6939 9.5 12.1644C9.5 9.63484 11.5211 7.59589 14 7.59589C16.4789 7.59589 18.5 9.63484 18.5 12.1644Z" fill="white" stroke="#C80000"/>
<rect x="8" y="52.7123" width="18" height="2.0274" fill="#707070"/>
<rect x="8" y="56.7672" width="18" height="2.0274" fill="#707070"/>
<rect x="8" y="48.6575" width="18" height="2.0274" fill="#707070"/>
<path fill-rule="evenodd" clip-rule="evenodd" d="M69.5 50.1781H44C44 61.126 52 64.2009 56 64.3699C61.2225 64.1663 64.5621 61.7387 66.6141 58.7945H73.5C74.7 58.7945 75.3333 57.4429 75.5 56.7671V53.2192C75.5 51.5973 74.1667 50.516 73.5 50.1781H69.5ZM71 52.2055H73C74 52.2055 74 53.3206 74 53.7261V55.7535C74 56.7672 72.9 56.7672 72.5 56.7672H70.5H68C68.1111 56.2603 68.2593 55.6296 68.4074 54.9988C68.7037 53.7373 69 52.4758 69 52.2055H71Z" fill="#707070"/>
</svg>
