<svg width="96" height="78" viewBox="0 0 96 78" fill="none" xmlns="http://www.w3.org/2000/svg">
<path fill-rule="evenodd" clip-rule="evenodd" d="M5.95803 30.1236C1.60883 31.9276 -0.286906 37.1086 1.86823 41.3009L18.0186 72.7175C20.164 76.8909 25.4015 78.2869 29.3466 75.7369L91.3182 35.68C94.7148 33.4845 95.975 29.087 94.2559 25.4288L84.91 5.54166C83.1069 1.70464 78.6441 -0.0257468 74.7341 1.59607L5.95803 30.1236ZM80.454 25.6041C83.4404 23.8536 84.4637 19.9768 82.7397 16.945C81.0157 13.9133 77.1971 12.8746 74.2107 14.6252C71.2243 16.3757 70.201 20.2525 71.9251 23.2843C73.6491 26.316 77.4677 27.3547 80.454 25.6041Z" fill="#C4C4C4"/>
<path d="M32.4211 55.1436L29.1211 56.8915L24.4218 47.7467L23.6818 46.2272L22.8909 44.5558C22.6278 45.4011 22.4339 45.9668 22.3092 46.2529L21.2649 48.6625L18.6404 47.4948L21.5876 40.7768L24.3002 39.34L32.4211 55.1436Z" fill="#707070"/>
<path d="M43.5258 39.209C44.944 41.969 45.5453 44.2496 45.3296 46.0508C45.121 47.8482 44.0876 49.239 42.2293 50.2233C40.428 51.1774 38.7163 51.2131 37.0943 50.3304C35.4794 49.4439 33.985 47.6639 32.6111 44.9903C31.1781 42.2015 30.5677 39.9119 30.78 38.1218C30.9886 36.3244 32.0184 34.9354 33.8696 33.9549C35.6709 33.0008 37.3863 32.9723 39.0157 33.8694C40.6523 34.7628 42.1556 36.5426 43.5258 39.209ZM35.8898 43.2537C36.8859 45.1922 37.7644 46.4963 38.5252 47.1659C39.2893 47.8246 40.063 47.9466 40.8462 47.5317C41.6151 47.1244 41.952 46.4051 41.8568 45.3737C41.7616 44.3423 41.2214 42.8682 40.2364 40.9513C39.2403 39.0128 38.3512 37.7144 37.569 37.056C36.7903 36.3867 36.0201 36.2538 35.2582 36.6573C34.4822 37.0684 34.1453 37.7877 34.2477 38.8153C34.3463 39.8357 34.8937 41.3152 35.8898 43.2537Z" fill="#707070"/>
<path d="M46.0527 33.8412C46.5229 34.7565 46.9531 35.3996 47.343 35.7706C47.7363 36.1307 48.111 36.2164 48.467 36.0279C49.1505 35.6658 49.0256 34.5768 48.0925 32.7608C47.1667 30.9592 46.3621 30.2394 45.6786 30.6015C45.3226 30.79 45.1775 31.1511 45.2433 31.6846C45.3126 32.2072 45.5824 32.926 46.0527 33.8412ZM50.7726 31.3136C51.6243 32.9711 51.9481 34.3856 51.744 35.5572C51.5362 36.7216 50.82 37.6281 49.5954 38.2767C48.4207 38.899 47.2944 38.9547 46.2167 38.4437C45.1352 37.9256 44.1798 36.8594 43.3503 35.2452C41.658 31.9519 42.04 29.6547 44.4963 28.3536C45.6995 27.7162 46.8419 27.6566 47.9233 28.1748C49.0082 28.6819 49.958 29.7282 50.7726 31.3136ZM55.6984 22.7087L55.1581 43.1L52.595 44.4577L53.1353 24.0664L55.6984 22.7087ZM60.2325 34.3614C60.7028 35.2766 61.1329 35.9197 61.5229 36.2907C61.9162 36.6508 62.2909 36.7365 62.6469 36.548C63.3304 36.1859 63.2055 35.0969 62.2723 33.2809C61.3466 31.4793 60.5419 30.7595 59.8584 31.1216C59.5025 31.3101 59.3574 31.6712 59.4232 32.2047C59.4925 32.7273 59.7622 33.4462 60.2325 34.3614ZM64.9525 31.8337C65.8005 33.484 66.1225 34.8949 65.9184 36.0665C65.7106 37.2309 64.9944 38.1374 63.7698 38.7861C62.595 39.4083 61.4687 39.464 60.391 38.953C59.3096 38.4349 58.3559 37.3723 57.5301 35.7653C55.8378 32.472 56.2198 30.1748 58.6762 28.8737C59.8794 28.2363 61.0218 28.1767 62.1032 28.6949C63.1881 29.2021 64.1378 30.2483 64.9525 31.8337Z" fill="#707070"/>
<path d="M83.7021 20.1022C83.7021 23.4927 80.9967 26.2284 77.6753 26.2284C74.3538 26.2284 71.6484 23.4927 71.6484 20.1022C71.6484 16.7117 74.3538 13.9761 77.6753 13.9761C80.9967 13.9761 83.7021 16.7117 83.7021 20.1022Z" fill="white" stroke="#D33333"/>
<path d="M75.165 15.005C77.6756 15.005 82.6968 16.0246 82.6968 22.6507C84.2031 19.5925 82.3955 12.5584 75.165 15.005Z" fill="#8A8A8D"/>
</svg>
