<svg width="40" height="40" viewBox="0 0 40 40" fill="none" xmlns="http://www.w3.org/2000/svg">
<path d="M20 0.5C9.248 0.5 0.5 9.248 0.5 20C0.5 30.752 9.248 39.5 20 39.5C30.752 39.5 39.5 30.752 39.5 20C39.5 9.248 30.752 0.5 20 0.5ZM20 3.5C29.129 3.5 36.5 10.871 36.5 20C36.5 29.129 29.129 36.5 20 36.5C10.871 36.5 3.5 29.129 3.5 20C3.5 10.871 10.871 3.5 20 3.5ZM20 8C15.875 8 12.5 11.375 12.5 15.5C12.5 17.774 13.5605 19.7945 15.1715 21.1715C13.4623 22.0576 12.0293 23.3963 11.0291 25.0414C10.029 26.6865 9.5 28.5747 9.5 30.5H12.5C12.5 26.3405 15.8405 23 20 23C24.1595 23 27.5 26.3405 27.5 30.5H30.5C30.5 26.45 28.2035 22.925 24.8285 21.1715C26.4395 19.7945 27.5 17.774 27.5 15.5C27.5 11.375 24.125 8 20 8ZM20 11C22.502 11 24.5 12.998 24.5 15.5C24.5 18.002 22.502 20 20 20C17.498 20 15.5 18.002 15.5 15.5C15.5 12.998 17.498 11 20 11Z" fill="#C80000"/>
</svg>
